<mxfile host="Electron" modified="2023-05-02T17:13:41.873Z" agent="Mozilla/5.0 (Macintosh; Intel Mac OS X 10_15_7) AppleWebKit/537.36 (KHTML, like Gecko) draw.io/21.2.1 Chrome/112.0.5615.87 Electron/24.1.2 Safari/537.36" etag="gft9BMFG8u2ldnEXLfNA" version="21.2.1" type="device">
  <diagram name="Page-1" id="2YBvvXClWsGukQMizWep">
    <mxGraphModel dx="1114" dy="824" grid="1" gridSize="10" guides="1" tooltips="1" connect="1" arrows="1" fold="1" page="1" pageScale="1" pageWidth="850" pageHeight="1100" math="0" shadow="0">
      <root>
        <mxCell id="0" />
        <mxCell id="1" parent="0" />
        <mxCell id="aM9ryv3xv72pqoxQDRHE-1" value=":Object" style="shape=umlLifeline;perimeter=lifelinePerimeter;whiteSpace=wrap;html=1;container=0;dropTarget=0;collapsible=0;recursiveResize=0;outlineConnect=0;portConstraint=eastwest;newEdgeStyle={&quot;edgeStyle&quot;:&quot;elbowEdgeStyle&quot;,&quot;elbow&quot;:&quot;vertical&quot;,&quot;curved&quot;:0,&quot;rounded&quot;:0};" parent="1" vertex="1">
          <mxGeometry x="35" y="90" width="100" height="300" as="geometry" />
        </mxCell>
        <mxCell id="aM9ryv3xv72pqoxQDRHE-2" value="" style="html=1;points=[];perimeter=orthogonalPerimeter;outlineConnect=0;targetShapes=umlLifeline;portConstraint=eastwest;newEdgeStyle={&quot;edgeStyle&quot;:&quot;elbowEdgeStyle&quot;,&quot;elbow&quot;:&quot;vertical&quot;,&quot;curved&quot;:0,&quot;rounded&quot;:0};" parent="aM9ryv3xv72pqoxQDRHE-1" vertex="1">
          <mxGeometry x="45" y="70" width="10" height="190" as="geometry" />
        </mxCell>
        <mxCell id="aM9ryv3xv72pqoxQDRHE-3" value="dispatch" style="html=1;verticalAlign=bottom;startArrow=oval;endArrow=block;startSize=8;edgeStyle=elbowEdgeStyle;elbow=vertical;curved=0;rounded=0;" parent="aM9ryv3xv72pqoxQDRHE-1" target="aM9ryv3xv72pqoxQDRHE-2" edge="1">
          <mxGeometry relative="1" as="geometry">
            <mxPoint x="-15" y="70" as="sourcePoint" />
          </mxGeometry>
        </mxCell>
        <mxCell id="aM9ryv3xv72pqoxQDRHE-4" value="" style="html=1;points=[];perimeter=orthogonalPerimeter;outlineConnect=0;targetShapes=umlLifeline;portConstraint=eastwest;newEdgeStyle={&quot;edgeStyle&quot;:&quot;elbowEdgeStyle&quot;,&quot;elbow&quot;:&quot;vertical&quot;,&quot;curved&quot;:0,&quot;rounded&quot;:0};" parent="aM9ryv3xv72pqoxQDRHE-1" vertex="1">
          <mxGeometry x="50" y="120" width="10" height="80" as="geometry" />
        </mxCell>
        <mxCell id="aM9ryv3xv72pqoxQDRHE-5" value=":Object" style="shape=umlLifeline;perimeter=lifelinePerimeter;whiteSpace=wrap;html=1;container=0;dropTarget=0;collapsible=0;recursiveResize=0;outlineConnect=0;portConstraint=eastwest;newEdgeStyle={&quot;edgeStyle&quot;:&quot;elbowEdgeStyle&quot;,&quot;elbow&quot;:&quot;vertical&quot;,&quot;curved&quot;:0,&quot;rounded&quot;:0};" parent="1" vertex="1">
          <mxGeometry x="215" y="90" width="100" height="300" as="geometry" />
        </mxCell>
        <mxCell id="aM9ryv3xv72pqoxQDRHE-6" value="" style="html=1;points=[];perimeter=orthogonalPerimeter;outlineConnect=0;targetShapes=umlLifeline;portConstraint=eastwest;newEdgeStyle={&quot;edgeStyle&quot;:&quot;elbowEdgeStyle&quot;,&quot;elbow&quot;:&quot;vertical&quot;,&quot;curved&quot;:0,&quot;rounded&quot;:0};" parent="aM9ryv3xv72pqoxQDRHE-5" vertex="1">
          <mxGeometry x="45" y="80" width="10" height="170" as="geometry" />
        </mxCell>
        <mxCell id="aM9ryv3xv72pqoxQDRHE-7" value="dispatch" style="html=1;verticalAlign=bottom;endArrow=block;edgeStyle=elbowEdgeStyle;elbow=vertical;curved=0;rounded=0;" parent="1" source="aM9ryv3xv72pqoxQDRHE-2" target="aM9ryv3xv72pqoxQDRHE-6" edge="1">
          <mxGeometry relative="1" as="geometry">
            <mxPoint x="190" y="180" as="sourcePoint" />
            <Array as="points">
              <mxPoint x="175" y="170" />
            </Array>
          </mxGeometry>
        </mxCell>
        <mxCell id="aM9ryv3xv72pqoxQDRHE-8" value="return" style="html=1;verticalAlign=bottom;endArrow=open;dashed=1;endSize=8;edgeStyle=elbowEdgeStyle;elbow=vertical;curved=0;rounded=0;" parent="1" source="aM9ryv3xv72pqoxQDRHE-6" target="aM9ryv3xv72pqoxQDRHE-2" edge="1">
          <mxGeometry relative="1" as="geometry">
            <mxPoint x="190" y="255" as="targetPoint" />
            <Array as="points">
              <mxPoint x="185" y="330" />
            </Array>
          </mxGeometry>
        </mxCell>
        <mxCell id="aM9ryv3xv72pqoxQDRHE-9" value="callback" style="html=1;verticalAlign=bottom;endArrow=block;edgeStyle=elbowEdgeStyle;elbow=vertical;curved=0;rounded=0;" parent="1" source="aM9ryv3xv72pqoxQDRHE-6" target="aM9ryv3xv72pqoxQDRHE-4" edge="1">
          <mxGeometry relative="1" as="geometry">
            <mxPoint x="170" y="210" as="sourcePoint" />
            <Array as="points">
              <mxPoint x="185" y="210" />
            </Array>
          </mxGeometry>
        </mxCell>
        <mxCell id="aM9ryv3xv72pqoxQDRHE-10" value="return" style="html=1;verticalAlign=bottom;endArrow=open;dashed=1;endSize=8;edgeStyle=elbowEdgeStyle;elbow=vertical;curved=0;rounded=0;" parent="1" source="aM9ryv3xv72pqoxQDRHE-4" target="aM9ryv3xv72pqoxQDRHE-6" edge="1">
          <mxGeometry relative="1" as="geometry">
            <mxPoint x="170" y="285" as="targetPoint" />
            <Array as="points">
              <mxPoint x="175" y="280" />
            </Array>
          </mxGeometry>
        </mxCell>
        <mxCell id="y0r-iZzcy5L6zaGAWvKw-56" value="회원" style="shape=umlLifeline;perimeter=lifelinePerimeter;whiteSpace=wrap;html=1;container=0;dropTarget=0;collapsible=0;recursiveResize=0;outlineConnect=0;portConstraint=eastwest;newEdgeStyle={&quot;edgeStyle&quot;:&quot;elbowEdgeStyle&quot;,&quot;elbow&quot;:&quot;vertical&quot;,&quot;curved&quot;:0,&quot;rounded&quot;:0};" parent="1" vertex="1">
          <mxGeometry x="40" y="420" width="100" height="680" as="geometry" />
        </mxCell>
        <mxCell id="y0r-iZzcy5L6zaGAWvKw-57" value="상품 DB" style="shape=umlLifeline;perimeter=lifelinePerimeter;whiteSpace=wrap;html=1;container=0;dropTarget=0;collapsible=0;recursiveResize=0;outlineConnect=0;portConstraint=eastwest;newEdgeStyle={&quot;edgeStyle&quot;:&quot;elbowEdgeStyle&quot;,&quot;elbow&quot;:&quot;vertical&quot;,&quot;curved&quot;:0,&quot;rounded&quot;:0};" parent="1" vertex="1">
          <mxGeometry x="241" y="420" width="100" height="680" as="geometry" />
        </mxCell>
        <mxCell id="y0r-iZzcy5L6zaGAWvKw-58" value="" style="html=1;points=[];perimeter=orthogonalPerimeter;outlineConnect=0;targetShapes=umlLifeline;portConstraint=eastwest;newEdgeStyle={&quot;edgeStyle&quot;:&quot;elbowEdgeStyle&quot;,&quot;elbow&quot;:&quot;vertical&quot;,&quot;curved&quot;:0,&quot;rounded&quot;:0};" parent="y0r-iZzcy5L6zaGAWvKw-57" vertex="1">
          <mxGeometry x="45" y="80" width="10" height="70" as="geometry" />
        </mxCell>
        <mxCell id="y0r-iZzcy5L6zaGAWvKw-75" value="" style="html=1;points=[];perimeter=orthogonalPerimeter;outlineConnect=0;targetShapes=umlLifeline;portConstraint=eastwest;newEdgeStyle={&quot;edgeStyle&quot;:&quot;elbowEdgeStyle&quot;,&quot;elbow&quot;:&quot;vertical&quot;,&quot;curved&quot;:0,&quot;rounded&quot;:0};" parent="y0r-iZzcy5L6zaGAWvKw-57" vertex="1">
          <mxGeometry x="45" y="260" width="10" height="70" as="geometry" />
        </mxCell>
        <mxCell id="y0r-iZzcy5L6zaGAWvKw-78" value="" style="html=1;points=[];perimeter=orthogonalPerimeter;outlineConnect=0;targetShapes=umlLifeline;portConstraint=eastwest;newEdgeStyle={&quot;edgeStyle&quot;:&quot;elbowEdgeStyle&quot;,&quot;elbow&quot;:&quot;vertical&quot;,&quot;curved&quot;:0,&quot;rounded&quot;:0};" parent="y0r-iZzcy5L6zaGAWvKw-57" vertex="1">
          <mxGeometry x="45" y="440" width="10" height="70" as="geometry" />
        </mxCell>
        <mxCell id="y0r-iZzcy5L6zaGAWvKw-81" value="" style="html=1;points=[];perimeter=orthogonalPerimeter;outlineConnect=0;targetShapes=umlLifeline;portConstraint=eastwest;newEdgeStyle={&quot;edgeStyle&quot;:&quot;elbowEdgeStyle&quot;,&quot;elbow&quot;:&quot;vertical&quot;,&quot;curved&quot;:0,&quot;rounded&quot;:0};" parent="y0r-iZzcy5L6zaGAWvKw-57" vertex="1">
          <mxGeometry x="45" y="550" width="10" height="70" as="geometry" />
        </mxCell>
        <mxCell id="y0r-iZzcy5L6zaGAWvKw-59" value="1. 카테고리 선택" style="html=1;verticalAlign=bottom;endArrow=block;edgeStyle=elbowEdgeStyle;elbow=vertical;curved=0;rounded=0;" parent="1" source="y0r-iZzcy5L6zaGAWvKw-56" target="y0r-iZzcy5L6zaGAWvKw-58" edge="1">
          <mxGeometry relative="1" as="geometry">
            <mxPoint x="95" y="500" as="sourcePoint" />
            <Array as="points">
              <mxPoint x="180" y="500" />
            </Array>
          </mxGeometry>
        </mxCell>
        <mxCell id="y0r-iZzcy5L6zaGAWvKw-60" value="1.1 하위 카테고리 목록" style="html=1;verticalAlign=bottom;endArrow=open;dashed=1;endSize=8;edgeStyle=elbowEdgeStyle;elbow=vertical;curved=0;rounded=0;" parent="1" source="y0r-iZzcy5L6zaGAWvKw-58" target="y0r-iZzcy5L6zaGAWvKw-56" edge="1">
          <mxGeometry x="0.0057" relative="1" as="geometry">
            <mxPoint x="95" y="570" as="targetPoint" />
            <Array as="points">
              <mxPoint x="190" y="570" />
            </Array>
            <mxPoint x="265" y="479" as="sourcePoint" />
            <mxPoint as="offset" />
          </mxGeometry>
        </mxCell>
        <mxCell id="y0r-iZzcy5L6zaGAWvKw-66" value="1. 하위 카테고리 조회" style="html=1;verticalAlign=bottom;endArrow=block;edgeStyle=elbowEdgeStyle;elbow=vertical;curved=0;rounded=0;" parent="1" target="y0r-iZzcy5L6zaGAWvKw-75" edge="1">
          <mxGeometry relative="1" as="geometry">
            <mxPoint x="89.5" y="681" as="sourcePoint" />
            <Array as="points">
              <mxPoint x="180" y="680" />
              <mxPoint x="190" y="556" />
            </Array>
            <mxPoint x="230" y="680" as="targetPoint" />
          </mxGeometry>
        </mxCell>
        <mxCell id="y0r-iZzcy5L6zaGAWvKw-67" value="loop" style="shape=umlFrame;whiteSpace=wrap;html=1;pointerEvents=0;" parent="1" vertex="1">
          <mxGeometry x="50" y="640" width="280" height="139" as="geometry" />
        </mxCell>
        <mxCell id="y0r-iZzcy5L6zaGAWvKw-69" value="선택" style="shape=umlFrame;whiteSpace=wrap;html=1;pointerEvents=0;" parent="1" vertex="1">
          <mxGeometry x="20" y="600" width="340" height="190" as="geometry" />
        </mxCell>
        <mxCell id="y0r-iZzcy5L6zaGAWvKw-70" value="[최하위 카테고리가 아닌 경우]" style="text;html=1;strokeColor=none;fillColor=none;align=center;verticalAlign=middle;whiteSpace=wrap;rounded=0;" parent="1" vertex="1">
          <mxGeometry x="70" y="600" width="200" height="30" as="geometry" />
        </mxCell>
        <mxCell id="y0r-iZzcy5L6zaGAWvKw-71" value="3. 카테고리 상품 목록 조회(카테고리명)" style="html=1;verticalAlign=bottom;endArrow=block;edgeStyle=elbowEdgeStyle;elbow=vertical;curved=0;rounded=0;" parent="1" target="y0r-iZzcy5L6zaGAWvKw-81" edge="1">
          <mxGeometry relative="1" as="geometry">
            <mxPoint x="90" y="970" as="sourcePoint" />
            <Array as="points">
              <mxPoint x="200" y="970" />
              <mxPoint x="190.5" y="845" />
            </Array>
            <mxPoint x="270" y="970" as="targetPoint" />
          </mxGeometry>
        </mxCell>
        <mxCell id="y0r-iZzcy5L6zaGAWvKw-73" value="선택" style="shape=umlFrame;whiteSpace=wrap;html=1;pointerEvents=0;" parent="1" vertex="1">
          <mxGeometry x="20" y="810" width="340" height="260" as="geometry" />
        </mxCell>
        <mxCell id="y0r-iZzcy5L6zaGAWvKw-74" value="[최하위 카테고리인 경우]" style="text;html=1;strokeColor=none;fillColor=none;align=center;verticalAlign=middle;whiteSpace=wrap;rounded=0;" parent="1" vertex="1">
          <mxGeometry x="60" y="810" width="200" height="30" as="geometry" />
        </mxCell>
        <mxCell id="y0r-iZzcy5L6zaGAWvKw-77" value="1.1 하위 카테고리 목록" style="html=1;verticalAlign=bottom;endArrow=open;dashed=1;endSize=8;edgeStyle=elbowEdgeStyle;elbow=vertical;curved=0;rounded=0;" parent="1" source="y0r-iZzcy5L6zaGAWvKw-75" edge="1">
          <mxGeometry x="0.0057" relative="1" as="geometry">
            <mxPoint x="89.5" y="750" as="targetPoint" />
            <Array as="points">
              <mxPoint x="210" y="750" />
            </Array>
            <mxPoint x="255" y="770" as="sourcePoint" />
            <mxPoint as="offset" />
          </mxGeometry>
        </mxCell>
        <mxCell id="y0r-iZzcy5L6zaGAWvKw-79" value="1. 하위 카테고리 조회" style="html=1;verticalAlign=bottom;endArrow=block;edgeStyle=elbowEdgeStyle;elbow=vertical;curved=0;rounded=0;" parent="1" source="y0r-iZzcy5L6zaGAWvKw-56" target="y0r-iZzcy5L6zaGAWvKw-78" edge="1">
          <mxGeometry relative="1" as="geometry">
            <mxPoint x="110.5" y="861" as="sourcePoint" />
            <Array as="points">
              <mxPoint x="100" y="860" />
              <mxPoint x="211" y="736" />
            </Array>
            <mxPoint x="251" y="860" as="targetPoint" />
          </mxGeometry>
        </mxCell>
        <mxCell id="y0r-iZzcy5L6zaGAWvKw-80" value="2. 하위 카테고리 목록 =. null" style="html=1;verticalAlign=bottom;endArrow=open;dashed=1;endSize=8;edgeStyle=elbowEdgeStyle;elbow=vertical;curved=0;rounded=0;" parent="1" source="y0r-iZzcy5L6zaGAWvKw-78" target="y0r-iZzcy5L6zaGAWvKw-56" edge="1">
          <mxGeometry x="0.0057" relative="1" as="geometry">
            <mxPoint x="110.5" y="930" as="targetPoint" />
            <Array as="points">
              <mxPoint x="231" y="930" />
            </Array>
            <mxPoint x="276" y="950" as="sourcePoint" />
            <mxPoint as="offset" />
          </mxGeometry>
        </mxCell>
        <mxCell id="y0r-iZzcy5L6zaGAWvKw-83" value="4. 카테고리 상품 목록(상품명, 가격)" style="html=1;verticalAlign=bottom;endArrow=open;dashed=1;endSize=8;edgeStyle=elbowEdgeStyle;elbow=vertical;curved=0;rounded=0;" parent="1" edge="1">
          <mxGeometry x="0.0057" relative="1" as="geometry">
            <mxPoint x="92" y="1040" as="targetPoint" />
            <Array as="points">
              <mxPoint x="233" y="1040" />
            </Array>
            <mxPoint x="288" y="1040" as="sourcePoint" />
            <mxPoint as="offset" />
          </mxGeometry>
        </mxCell>
        <mxCell id="5_eJ1M0S0d7M90PodzWj-4" value="회원" style="shape=umlLifeline;perimeter=lifelinePerimeter;whiteSpace=wrap;html=1;container=0;dropTarget=0;collapsible=0;recursiveResize=0;outlineConnect=0;portConstraint=eastwest;newEdgeStyle={&quot;edgeStyle&quot;:&quot;elbowEdgeStyle&quot;,&quot;elbow&quot;:&quot;vertical&quot;,&quot;curved&quot;:0,&quot;rounded&quot;:0};" vertex="1" parent="1">
          <mxGeometry x="480" y="80" width="100" height="460" as="geometry" />
        </mxCell>
        <mxCell id="5_eJ1M0S0d7M90PodzWj-8" value="웹페이지" style="shape=umlLifeline;perimeter=lifelinePerimeter;whiteSpace=wrap;html=1;container=0;dropTarget=0;collapsible=0;recursiveResize=0;outlineConnect=0;portConstraint=eastwest;newEdgeStyle={&quot;edgeStyle&quot;:&quot;elbowEdgeStyle&quot;,&quot;elbow&quot;:&quot;vertical&quot;,&quot;curved&quot;:0,&quot;rounded&quot;:0};" vertex="1" parent="1">
          <mxGeometry x="620" y="80" width="100" height="460" as="geometry" />
        </mxCell>
        <mxCell id="5_eJ1M0S0d7M90PodzWj-13" value="" style="html=1;points=[];perimeter=orthogonalPerimeter;outlineConnect=0;targetShapes=umlLifeline;portConstraint=eastwest;newEdgeStyle={&quot;edgeStyle&quot;:&quot;elbowEdgeStyle&quot;,&quot;elbow&quot;:&quot;vertical&quot;,&quot;curved&quot;:0,&quot;rounded&quot;:0};" vertex="1" parent="5_eJ1M0S0d7M90PodzWj-8">
          <mxGeometry x="45" y="105" width="10" height="85" as="geometry" />
        </mxCell>
        <mxCell id="5_eJ1M0S0d7M90PodzWj-10" value="아바타 DB" style="shape=umlLifeline;perimeter=lifelinePerimeter;whiteSpace=wrap;html=1;container=0;dropTarget=0;collapsible=0;recursiveResize=0;outlineConnect=0;portConstraint=eastwest;newEdgeStyle={&quot;edgeStyle&quot;:&quot;elbowEdgeStyle&quot;,&quot;elbow&quot;:&quot;vertical&quot;,&quot;curved&quot;:0,&quot;rounded&quot;:0};" vertex="1" parent="1">
          <mxGeometry x="760" y="80" width="100" height="460" as="geometry" />
        </mxCell>
        <mxCell id="5_eJ1M0S0d7M90PodzWj-11" value="" style="html=1;points=[];perimeter=orthogonalPerimeter;outlineConnect=0;targetShapes=umlLifeline;portConstraint=eastwest;newEdgeStyle={&quot;edgeStyle&quot;:&quot;elbowEdgeStyle&quot;,&quot;elbow&quot;:&quot;vertical&quot;,&quot;curved&quot;:0,&quot;rounded&quot;:0};" vertex="1" parent="5_eJ1M0S0d7M90PodzWj-10">
          <mxGeometry x="45" y="135" width="10" height="40" as="geometry" />
        </mxCell>
        <mxCell id="5_eJ1M0S0d7M90PodzWj-12" value="1. 아바타 선택" style="html=1;verticalAlign=bottom;endArrow=block;edgeStyle=elbowEdgeStyle;elbow=vertical;curved=0;rounded=0;" edge="1" parent="1" target="5_eJ1M0S0d7M90PodzWj-13">
          <mxGeometry relative="1" as="geometry">
            <mxPoint x="529.5" y="185" as="sourcePoint" />
            <Array as="points">
              <mxPoint x="595" y="185" />
            </Array>
            <mxPoint x="650" y="185" as="targetPoint" />
          </mxGeometry>
        </mxCell>
        <mxCell id="5_eJ1M0S0d7M90PodzWj-14" value="1.1 해당 아바타 객체 호출" style="html=1;verticalAlign=bottom;endArrow=block;edgeStyle=elbowEdgeStyle;elbow=vertical;curved=0;rounded=0;" edge="1" parent="1" source="5_eJ1M0S0d7M90PodzWj-13" target="5_eJ1M0S0d7M90PodzWj-11">
          <mxGeometry relative="1" as="geometry">
            <mxPoint x="680" y="215" as="sourcePoint" />
            <Array as="points">
              <mxPoint x="740" y="215" />
              <mxPoint x="745" y="215" />
            </Array>
            <mxPoint x="790" y="215" as="targetPoint" />
          </mxGeometry>
        </mxCell>
        <mxCell id="5_eJ1M0S0d7M90PodzWj-15" value="1.2 아바타 객체 응답" style="html=1;verticalAlign=bottom;endArrow=open;dashed=1;endSize=8;edgeStyle=elbowEdgeStyle;elbow=vertical;curved=0;rounded=0;" edge="1" parent="1" source="5_eJ1M0S0d7M90PodzWj-11" target="5_eJ1M0S0d7M90PodzWj-13">
          <mxGeometry x="0.0057" relative="1" as="geometry">
            <mxPoint x="680" y="255" as="targetPoint" />
            <Array as="points">
              <mxPoint x="770" y="255" />
            </Array>
            <mxPoint x="796" y="254.5" as="sourcePoint" />
            <mxPoint as="offset" />
          </mxGeometry>
        </mxCell>
        <mxCell id="5_eJ1M0S0d7M90PodzWj-16" value="상품 DB" style="shape=umlLifeline;perimeter=lifelinePerimeter;whiteSpace=wrap;html=1;container=0;dropTarget=0;collapsible=0;recursiveResize=0;outlineConnect=0;portConstraint=eastwest;newEdgeStyle={&quot;edgeStyle&quot;:&quot;elbowEdgeStyle&quot;,&quot;elbow&quot;:&quot;vertical&quot;,&quot;curved&quot;:0,&quot;rounded&quot;:0};" vertex="1" parent="1">
          <mxGeometry x="900" y="80" width="100" height="460" as="geometry" />
        </mxCell>
        <mxCell id="5_eJ1M0S0d7M90PodzWj-23" value="" style="html=1;points=[];perimeter=orthogonalPerimeter;outlineConnect=0;targetShapes=umlLifeline;portConstraint=eastwest;newEdgeStyle={&quot;edgeStyle&quot;:&quot;elbowEdgeStyle&quot;,&quot;elbow&quot;:&quot;vertical&quot;,&quot;curved&quot;:0,&quot;rounded&quot;:0};" vertex="1" parent="5_eJ1M0S0d7M90PodzWj-16">
          <mxGeometry x="-235" y="330" width="10" height="70" as="geometry" />
        </mxCell>
        <mxCell id="5_eJ1M0S0d7M90PodzWj-17" value="" style="html=1;points=[];perimeter=orthogonalPerimeter;outlineConnect=0;targetShapes=umlLifeline;portConstraint=eastwest;newEdgeStyle={&quot;edgeStyle&quot;:&quot;elbowEdgeStyle&quot;,&quot;elbow&quot;:&quot;vertical&quot;,&quot;curved&quot;:0,&quot;rounded&quot;:0};" vertex="1" parent="5_eJ1M0S0d7M90PodzWj-16">
          <mxGeometry x="45" y="310" width="10" height="20" as="geometry" />
        </mxCell>
        <mxCell id="5_eJ1M0S0d7M90PodzWj-20" value="2. 상품 선택" style="html=1;verticalAlign=bottom;endArrow=block;edgeStyle=elbowEdgeStyle;elbow=vertical;curved=0;rounded=0;" edge="1" parent="5_eJ1M0S0d7M90PodzWj-16" target="5_eJ1M0S0d7M90PodzWj-17">
          <mxGeometry relative="1" as="geometry">
            <mxPoint x="-370" y="310" as="sourcePoint" />
            <Array as="points">
              <mxPoint x="-304.5" y="310" />
            </Array>
            <mxPoint x="-234.5" y="310" as="targetPoint" />
          </mxGeometry>
        </mxCell>
        <mxCell id="5_eJ1M0S0d7M90PodzWj-21" value="loop" style="shape=umlFrame;whiteSpace=wrap;html=1;pointerEvents=0;" vertex="1" parent="5_eJ1M0S0d7M90PodzWj-16">
          <mxGeometry x="-380" y="270" width="450" height="150" as="geometry" />
        </mxCell>
        <mxCell id="5_eJ1M0S0d7M90PodzWj-22" value="2.1 상품 모델링 데이터 반환" style="html=1;verticalAlign=bottom;endArrow=open;dashed=1;endSize=8;edgeStyle=elbowEdgeStyle;elbow=vertical;curved=0;rounded=0;" edge="1" parent="5_eJ1M0S0d7M90PodzWj-16" source="5_eJ1M0S0d7M90PodzWj-17">
          <mxGeometry x="-0.0526" relative="1" as="geometry">
            <mxPoint x="-230" y="330" as="targetPoint" />
            <Array as="points" />
            <mxPoint y="350" as="sourcePoint" />
            <mxPoint as="offset" />
          </mxGeometry>
        </mxCell>
        <mxCell id="5_eJ1M0S0d7M90PodzWj-24" value="" style="html=1;points=[];perimeter=orthogonalPerimeter;outlineConnect=0;targetShapes=umlLifeline;portConstraint=eastwest;newEdgeStyle={&quot;edgeStyle&quot;:&quot;elbowEdgeStyle&quot;,&quot;elbow&quot;:&quot;vertical&quot;,&quot;curved&quot;:0,&quot;rounded&quot;:0};" vertex="1" parent="5_eJ1M0S0d7M90PodzWj-16">
          <mxGeometry x="-230" y="353.75" width="10" height="32.5" as="geometry" />
        </mxCell>
        <mxCell id="5_eJ1M0S0d7M90PodzWj-26" value="2.2 상품 착용 후 렌더링 데이터 반환" style="html=1;verticalAlign=bottom;endArrow=block;edgeStyle=elbowEdgeStyle;elbow=vertical;curved=0;rounded=0;" edge="1" parent="5_eJ1M0S0d7M90PodzWj-16" source="5_eJ1M0S0d7M90PodzWj-23" target="5_eJ1M0S0d7M90PodzWj-24">
          <mxGeometry x="0.3707" y="90" relative="1" as="geometry">
            <mxPoint x="-200" y="360" as="sourcePoint" />
            <Array as="points">
              <mxPoint x="-200" y="340" />
              <mxPoint x="-200" y="380" />
              <mxPoint x="-190" y="340" />
              <mxPoint x="-190" y="360" />
              <mxPoint x="-200" y="370" />
            </Array>
            <mxPoint x="-200" y="390" as="targetPoint" />
            <mxPoint as="offset" />
          </mxGeometry>
        </mxCell>
        <mxCell id="5_eJ1M0S0d7M90PodzWj-18" value="loop" style="shape=umlFrame;whiteSpace=wrap;html=1;pointerEvents=0;" vertex="1" parent="1">
          <mxGeometry x="490" y="140" width="360" height="150" as="geometry" />
        </mxCell>
        <mxCell id="5_eJ1M0S0d7M90PodzWj-19" value="1.3 아바타 모델링 결과 표시" style="html=1;verticalAlign=bottom;endArrow=open;dashed=1;endSize=8;edgeStyle=elbowEdgeStyle;elbow=vertical;curved=0;rounded=0;" edge="1" parent="1" source="5_eJ1M0S0d7M90PodzWj-13" target="5_eJ1M0S0d7M90PodzWj-4">
          <mxGeometry x="0.0037" relative="1" as="geometry">
            <mxPoint x="530" y="265" as="targetPoint" />
            <Array as="points">
              <mxPoint x="600" y="270" />
            </Array>
            <mxPoint x="660" y="265" as="sourcePoint" />
            <mxPoint as="offset" />
          </mxGeometry>
        </mxCell>
        <mxCell id="5_eJ1M0S0d7M90PodzWj-29" value="선택" style="shape=umlFrame;whiteSpace=wrap;html=1;pointerEvents=0;" vertex="1" parent="1">
          <mxGeometry x="490" y="310" width="510" height="210" as="geometry" />
        </mxCell>
        <mxCell id="5_eJ1M0S0d7M90PodzWj-30" value="[다른 옷을 입히고 싶은 경우]" style="text;html=1;strokeColor=none;fillColor=none;align=center;verticalAlign=middle;whiteSpace=wrap;rounded=0;" vertex="1" parent="1">
          <mxGeometry x="530" y="310" width="200" height="30" as="geometry" />
        </mxCell>
        <mxCell id="5_eJ1M0S0d7M90PodzWj-31" value="2.3 아바타 모델링 결과 표시" style="html=1;verticalAlign=bottom;endArrow=open;dashed=1;endSize=8;edgeStyle=elbowEdgeStyle;elbow=vertical;curved=0;rounded=0;" edge="1" parent="1" source="5_eJ1M0S0d7M90PodzWj-23" target="5_eJ1M0S0d7M90PodzWj-4">
          <mxGeometry x="-0.0554" relative="1" as="geometry">
            <mxPoint x="380" y="530" as="targetPoint" />
            <Array as="points">
              <mxPoint x="623" y="480" />
            </Array>
            <mxPoint x="655" y="530" as="sourcePoint" />
            <mxPoint as="offset" />
          </mxGeometry>
        </mxCell>
      </root>
    </mxGraphModel>
  </diagram>
</mxfile>
